<?xml version="1.0" standalone="no"?>
<!DOCTYPE svg PUBLIC "-//W3C//DTD SVG 20010904//EN"
 "http://www.w3.org/TR/2001/REC-SVG-20010904/DTD/svg10.dtd">
<svg version="1.0" xmlns="http://www.w3.org/2000/svg"
 width="200.000000pt" height="200.000000pt" viewBox="0 0 200.000000 200.000000"
 preserveAspectRatio="xMidYMid meet">
<metadata>
Created by potrace 1.14, written by Peter Selinger 2001-2017
</metadata>
<g transform="translate(0.000000,200.000000) scale(0.100000,-0.100000)"
fill="#000000" stroke="none">
<path d="M972 1768 c-7 -7 -12 -24 -12 -39 0 -24 -15 -36 -130 -105 -72 -44
-146 -88 -165 -99 -19 -11 -76 -46 -128 -78 -79 -48 -99 -56 -125 -51 -20 4
-38 2 -47 -6 -18 -15 -20 -51 -2 -68 8 -9 12 -53 13 -144 0 -116 2 -132 19
-144 43 -32 93 -5 93 51 0 17 0 68 1 115 l1 85 88 51 c48 28 163 97 255 153
l169 101 171 -105 c95 -57 209 -126 254 -152 l83 -48 1 -60 c0 -33 0 -80 -1
-103 -1 -24 4 -57 10 -73 10 -24 18 -29 45 -29 52 0 59 17 62 163 2 72 8 136
13 141 15 15 12 52 -5 66 -9 8 -27 10 -46 6 -30 -6 -47 3 -414 227 -105 64
-133 87 -128 107 11 40 -45 68 -75 38z"/>
<path d="M965 1491 c-16 -10 -67 -40 -113 -67 -46 -27 -94 -56 -107 -64 -13
-8 -60 -36 -104 -63 l-81 -47 0 -58 c-2 -258 -2 -444 1 -446 11 -10 119 -76
124 -76 3 0 11 -5 18 -10 7 -6 77 -48 157 -95 l145 -84 30 19 c16 10 44 26 62
37 17 10 57 34 90 53 32 19 61 37 66 38 4 2 49 29 100 60 l92 57 0 250 -1 250
-99 62 c-55 34 -105 62 -112 62 -6 1 -13 4 -15 9 -3 7 -210 132 -219 132 -2 0
-17 -9 -34 -19z m208 -215 l152 -91 3 -184 c3 -194 2 -199 -47 -224 -48 -25
-126 -70 -139 -80 -14 -11 -64 -40 -109 -64 l-31 -16 -118 69 c-65 38 -138 81
-163 95 l-46 26 -3 190 -2 190 52 28 c28 16 101 59 162 96 60 37 116 65 124
62 7 -3 82 -47 165 -97z"/>
<path d="M947 1270 c-26 -16 -50 -30 -52 -30 -8 0 -140 -85 -147 -94 -3 -5 -5
-75 -5 -154 l2 -146 115 -68 c63 -37 122 -72 129 -76 10 -6 45 10 110 49 53
32 110 65 126 74 l31 15 -1 155 0 155 -123 75 c-67 41 -126 75 -130 75 -5 0
-29 -13 -55 -30z m120 -145 c34 -20 64 -39 64 -43 1 -4 2 -44 3 -90 l2 -84
-68 -40 c-62 -37 -70 -39 -86 -26 -9 8 -38 26 -64 38 -27 13 -49 26 -49 29 -1
3 -2 43 -3 89 l-2 84 66 39 c36 21 67 39 69 39 2 0 33 -16 68 -35z"/>
<path d="M396 954 c-20 -19 -18 -5 -20 -156 -1 -85 -6 -132 -14 -140 -32 -32
9 -85 53 -68 17 7 39 -1 101 -37 43 -25 88 -51 99 -57 11 -6 93 -55 183 -109
145 -88 162 -101 162 -125 0 -34 9 -47 37 -54 27 -7 50 17 55 56 3 27 26 43
261 184 179 107 262 151 270 144 17 -13 46 -7 62 14 13 18 10 38 -9 62 -6 8
-9 65 -9 139 1 111 0 126 -18 144 -23 23 -48 24 -75 5 -17 -13 -19 -28 -20
-131 -1 -64 -3 -118 -5 -120 -14 -13 -495 -295 -504 -295 -7 0 -86 44 -176 98
-90 54 -171 101 -179 105 -8 4 -44 25 -79 47 -34 22 -67 40 -72 40 -10 0 -11
14 -10 152 0 79 -2 89 -22 103 -28 19 -51 19 -71 -1z"/>
</g>
</svg>
